<svg xmlns="http://www.w3.org/2000/svg" viewBox="0 0 38.17 38"><defs><style>.cls-1{fill:#fff;}</style></defs><g id="Layer_2" data-name="Layer 2"><g id="Layer_1-2" data-name="Layer 1"><path class="cls-1" d="M19.05,0h.07c.06,0,.13,0,.2,0h.32a.75.75,0,0,0,.21,0h.06C20,0,20,0,20.1,0a14.89,14.89,0,0,1,4,.58,18.74,18.74,0,0,1,6.05,2.87,20,20,0,0,1,2.62,2.24,18.72,18.72,0,0,1,2,2.38,18.89,18.89,0,0,1,2.82,6,16.32,16.32,0,0,1,.5,2.58c0,.45,0,.91.06,1.36v.36a.46.46,0,0,0,0,.2v1a.5.5,0,0,0,0,.21v.37a15,15,0,0,1-.55,3.88A19.68,19.68,0,0,1,36.08,28a19.14,19.14,0,0,1-2.3,3.42,18.13,18.13,0,0,1-1.65,1.74,18.64,18.64,0,0,1-3.32,2.48A19.12,19.12,0,0,1,22.52,38l-.33,0c-.11,0-.16,0-.18-.15a1.34,1.34,0,0,1,0-.2V24.92c0-.37,0-.38.39-.38h3.73c.3,0,.33,0,.37-.31.25-1.59.49-3.19.74-4.79,0-.24,0-.28-.25-.28H22.41c-.41,0-.41,0-.41-.41,0-1.15,0-2.3,0-3.45a2.9,2.9,0,0,1,.56-1.75,2.7,2.7,0,0,1,1.77-1,4.47,4.47,0,0,1,.82-.07q1,0,2.07,0c.24,0,.28,0,.28-.28v-4c0-.25,0-.29-.27-.33-.6-.09-1.21-.15-1.82-.21a19.34,19.34,0,0,0-2-.11,9,9,0,0,0-2.62.36,6.22,6.22,0,0,0-2.36,1.27,6,6,0,0,0-1.7,2.52,8.67,8.67,0,0,0-.52,2.67c-.06,1.46,0,2.93,0,4.39,0,.42,0,.42-.42.42H11.52q-.16,0-.18.18v5a.17.17,0,0,0,.19.18h4.26c.37,0,.38,0,.38.38V37.65c0,.36,0,.38-.37.32a19.17,19.17,0,0,1-9-4.14A19.63,19.63,0,0,1,3.35,30a19.29,19.29,0,0,1-2.84-6.2,14.61,14.61,0,0,1-.43-2.36A12.45,12.45,0,0,1,0,20.11v-.18a.75.75,0,0,0,0-.21v-.09a.86.86,0,0,0,0-.39v-.31a.81.81,0,0,0,0-.38v-.1c0-.06,0-.13,0-.2v-.17A14.58,14.58,0,0,1,.6,14,18.8,18.8,0,0,1,2,10.46,19.2,19.2,0,0,1,9.36,2.58,18.86,18.86,0,0,1,13.22.84,17.8,17.8,0,0,1,16.75.07c.45,0,.91,0,1.36,0h.59A2,2,0,0,0,19.05,0Z"/></g></g></svg>