<svg xmlns="http://www.w3.org/2000/svg" viewBox="0 0 36.67 37.36"><defs><style>.cls-1{fill:#fff;}</style></defs><g id="Layer_2" data-name="Layer 2"><g id="Layer_1-2" data-name="Layer 1"><path class="cls-1" d="M36.65,18.69c0,3.21.06,6.43,0,9.64a8.9,8.9,0,0,1-4.52,7.77,8.8,8.8,0,0,1-4.7,1.26H9.24a9,9,0,0,1-6-2.19,9,9,0,0,1-3-4.89A9.35,9.35,0,0,1,0,28.17c0-6.32,0-12.64,0-19a8.92,8.92,0,0,1,3.1-6.9A8.9,8.9,0,0,1,7.62.13,9.12,9.12,0,0,1,9.18,0H27.47a9.19,9.19,0,0,1,9.19,9.24c0,3.15,0,6.3,0,9.45Zm-2.85,0c0-2.63,0-5.26,0-7.9,0-.35,0-.7,0-1.06A7.23,7.23,0,0,0,33,7.27a7.62,7.62,0,0,0-2.9-3.21,7.26,7.26,0,0,0-3.86-1.15q-7.89,0-15.77,0A7.85,7.85,0,0,0,9.42,3,7.5,7.5,0,0,0,5.2,5.1a7.59,7.59,0,0,0-2.35,5.58v16a7.82,7.82,0,0,0,.4,2.49,7.49,7.49,0,0,0,1.62,2.76,7.68,7.68,0,0,0,3.34,2.16,8.09,8.09,0,0,0,2.49.38H25.64l.71,0a7.34,7.34,0,0,0,3.15-.79,7.72,7.72,0,0,0,4.3-6.91Z"/><path class="cls-1" d="M18.33,28.06a9.38,9.38,0,1,1,9.38-9.38A9.38,9.38,0,0,1,18.33,28.06Zm6.89-9.36c0-.15,0-.3,0-.45a6.93,6.93,0,0,0-1.86-4.4,6.65,6.65,0,0,0-6.07-2.15,6.35,6.35,0,0,0-3.59,1.75,7,7,0,0,0-2.18,6.35,6.73,6.73,0,0,0,1.91,3.84A6.66,6.66,0,0,0,19,25.71a6.56,6.56,0,0,0,3.7-1.58A7,7,0,0,0,25.22,18.7Z"/><path class="cls-1" d="M25.23,8.93a2.82,2.82,0,1,1,2.82,2.81A2.82,2.82,0,0,1,25.23,8.93Z"/></g></g></svg>