<svg xmlns="http://www.w3.org/2000/svg" viewBox="0 0 473.39 466.19"><defs><style>.cls-1{fill:#fff;}</style></defs><g id="Layer_2" data-name="Layer 2"><g id="Layer_1-2" data-name="Layer 1"><path class="cls-1" d="M42.09,420.09c-13.93-4.65-21.4-15.28-26.95-28.14-15.73-36.52-18.55-74.29-11.48-113,9.47-51.85,32.76-97.61,63.55-139.63C115.26,73.7,178.72,30,257.37,8.89c28.18-7.58,56.85-10.8,86.05-7.74,15.38,1.61,29.9,6.34,44.13,12a22.7,22.7,0,0,1,8.68,6.41c4.18,5,2,10.57-4.06,12.8-87.14,31.89-144,91.79-166.46,182.39-5.28,21.27-9,42.91-15.81,63.84-14.36,44.07-43.64,76.38-80.32,102.91a242.62,242.62,0,0,1-78.33,37.56,13,13,0,0,0-2.16,1Z"/><path class="cls-1" d="M431.3,46.09c13.93,4.65,21.4,15.28,26.95,28.15,15.73,36.52,18.55,74.29,11.48,113-9.46,51.84-32.76,97.6-63.55,139.63C358.13,392.48,294.67,436.16,216,457.3c-28.18,7.58-56.85,10.8-86.05,7.74-15.38-1.61-29.9-6.34-44.13-12a22.78,22.78,0,0,1-8.68-6.41c-4.18-5-2-10.58,4.06-12.8,87.14-31.9,144-91.79,166.46-182.39,5.28-21.27,9-42.91,15.81-63.85,14.36-44.06,43.64-76.37,80.32-102.9a242.62,242.62,0,0,1,78.33-37.56,12.29,12.29,0,0,0,2.16-1Z"/></g></g></svg>