<svg xmlns="http://www.w3.org/2000/svg" viewBox="0 0 72.45 71.05"><defs><style>.cls-1{fill:#f8ae6d;}.cls-2{fill:#7e4210;}.cls-3{fill:#5b300b;}.cls-4{fill:#ffcc96;}.cls-5{fill:#151513;opacity:0.05;}.cls-6{fill:#f5f5f5;}.cls-7{fill:#ffbc80;}</style></defs><g id="Layer_2" data-name="Layer 2"><g id="Layer_1-2" data-name="Layer 1"><path class="cls-1" d="M17.74,42l0,0A1.52,1.52,0,0,1,20,41.9a47.78,47.78,0,0,0,8.44,5.81,1.62,1.62,0,0,1,.67,2.13v0a1.52,1.52,0,0,1-2.12.66,50.43,50.43,0,0,1-8.88-6A1.83,1.83,0,0,1,17.74,42Z"/><path class="cls-1" d="M54.71,42l0,0a1.53,1.53,0,0,0-2.24-.12A47.35,47.35,0,0,1,44,47.71a1.62,1.62,0,0,0-.67,2.13v0a1.51,1.51,0,0,0,2.12.66,50.8,50.8,0,0,0,8.88-6A1.84,1.84,0,0,0,54.71,42Z"/><path class="cls-2" d="M44.21,6.07c0,3.36-3.57,6.08-8,6.08s-8-2.72-8-6.08S31.84,0,36.24,0,44.21,2.72,44.21,6.07Z"/><path class="cls-3" d="M50.36,20.94c0,9.51-6.32,20.76-14.12,20.76S22.11,30.45,22.11,20.94,28.44,7.25,36.24,7.25,50.36,11.43,50.36,20.94Z"/><path class="cls-4" d="M60.18,66.58v4.47H12.31V66.58c0-3.77-1.27-8.37,4.6-12.06.2-.12,1.24-.57,1.86-.83l.49-.21,1.5-.54,1.92-.7,7.52-2.72v1a4.71,4.71,0,0,0,0,.53,5.58,5.58,0,0,0,.09.59A5.78,5.78,0,0,0,36,56.19h.57a5.77,5.77,0,0,0,5.62-4.52l.06-.31c0-.1,0-.2,0-.3v0a.11.11,0,0,0,0-.08,3.4,3.4,0,0,0,0-.45v-1l7.52,2.72,1.92.7,1.5.54.49.21c.62.26,1.65.71,1.85.83C61.44,58.21,60.18,62.81,60.18,66.58Z"/><path class="cls-4" d="M42.29,43.43v7.08a5.61,5.61,0,0,1-.14,1.24,5.77,5.77,0,0,1-5.62,4.53H36a5.78,5.78,0,0,1-5.64-4.57,6,6,0,0,1-.12-1.2V43.43a8.58,8.58,0,0,0,6,2.46h.13A8.58,8.58,0,0,0,42.29,43.43Z"/><path class="cls-5" d="M42.29,43.43v2.41a8.58,8.58,0,0,1-6,2.47h-.13a8.58,8.58,0,0,1-6-2.47V43.43a8.58,8.58,0,0,0,6,2.46h.13A8.58,8.58,0,0,0,42.29,43.43Z"/><path class="cls-6" d="M51.71,69a6.41,6.41,0,0,1-.32,2H21.1a6.41,6.41,0,0,1-.32-2,7,7,0,0,1,3.93-6.1,8.24,8.24,0,0,1,1.9-.74,9.08,9.08,0,0,1,2.23-.28h14.8a9.1,9.1,0,0,1,2.24.28,8.07,8.07,0,0,1,1.9.74A7,7,0,0,1,51.71,69Z"/><path class="cls-4" d="M50.34,24.57a1.74,1.74,0,0,0-.32,0,1.86,1.86,0,0,0-.94.45h0c0-.61-.08-1.17-.14-1.72,0-.1,0-.19,0-.28,0-.35-.08-.69-.13-1h0a13.57,13.57,0,0,0-.9-3.18c-4.55-5.59-18.23-5.41-23.22,0a13.1,13.1,0,0,0-.9,3.18h0c-.05.32-.09.66-.13,1a2.89,2.89,0,0,0,0,.29c-.06.54-.11,1.11-.14,1.7v0a1.79,1.79,0,0,0-.93-.45,1.74,1.74,0,0,0-.32,0c-1.05.17-1.7,1.66-1.61,3.47a7.47,7.47,0,0,0,.08.8c0,.22.08.43.14.64a4,4,0,0,0,2,2.85,1.49,1.49,0,0,0,.68.08l.22-.07c.82,3.38,1.88,6,3,7.31,1.49,1.61,2.54,2.84,3.52,3.77a8.58,8.58,0,0,0,6,2.47h.13a8.61,8.61,0,0,0,6-2.47c1-.93,2-2.16,3.52-3.77,1.16-1.26,2.22-3.93,3-7.31l.22.07a1.29,1.29,0,0,0,.34,0,1.4,1.4,0,0,0,.34-.08c1-.36,1.83-1.74,2.11-3.49A5.6,5.6,0,0,0,52,28C52,26.23,51.38,24.74,50.34,24.57Z"/><rect class="cls-1" x="41.96" y="52.31" width="12.87" height="2.93" rx="1.45" transform="translate(-20.25 76.61) rotate(-66.41)"/><path class="cls-1" d="M53.57,49h0a1.45,1.45,0,0,0-1.85.88L47.86,60.64a1.45,1.45,0,0,0,.87,1.85h0a1.44,1.44,0,0,0,1.85-.88l3.84-10.76A1.45,1.45,0,0,0,53.57,49Z"/><path class="cls-1" d="M56.07,50.14h0a1.45,1.45,0,0,0-1.72,1.11L52.2,61a1.44,1.44,0,0,0,1.1,1.72h0a1.46,1.46,0,0,0,1.72-1.11l2.12-9.75A1.44,1.44,0,0,0,56.07,50.14Z"/><rect class="cls-1" x="52.52" y="55.17" width="10.56" height="2.6" rx="1.29" transform="translate(-6.12 105.91) rotate(-82.06)"/><path class="cls-7" d="M59.52,42.37l-2.61-1.13a4.26,4.26,0,0,0-5.61,2.2l-1.39,3.2,10.43,4.54L61.73,48A4.26,4.26,0,0,0,59.52,42.37Z"/><polygon class="cls-7" points="72.45 25.08 62.08 20.45 53.13 43.46 60.46 46.65 72.45 25.08"/><path class="cls-7" d="M60.55,50.69l-1,2.38a1.28,1.28,0,0,1-1.69.66h0A1.29,1.29,0,0,1,57.13,52l-.19.43a1.44,1.44,0,0,1-1.9.75h0a1.45,1.45,0,0,1-.75-1.91l-.17.4a1.45,1.45,0,0,1-1.91.75h0a1.45,1.45,0,0,1-.75-1.9,1.44,1.44,0,0,1-1.9.75l0,0a1.44,1.44,0,0,1-.75-1.9l1.4-3.21Z"/><path class="cls-1" d="M21.47,47.88l0,0a1.45,1.45,0,0,1,1.91.75l4,9.15a1.45,1.45,0,0,1-.75,1.91h0a1.45,1.45,0,0,1-1.91-.75l-4-9.15A1.43,1.43,0,0,1,21.47,47.88Z"/><path class="cls-1" d="M18.88,49h0a1.44,1.44,0,0,1,1.85.88l3.84,10.76a1.44,1.44,0,0,1-.88,1.85h0a1.44,1.44,0,0,1-1.85-.88L18,50.86A1.44,1.44,0,0,1,18.88,49Z"/><path class="cls-1" d="M16.38,50.14h0a1.45,1.45,0,0,1,1.72,1.11L20.25,61a1.44,1.44,0,0,1-1.11,1.72h0a1.46,1.46,0,0,1-1.73-1.11l-2.12-9.75A1.45,1.45,0,0,1,16.38,50.14Z"/><rect class="cls-1" x="13.35" y="51.19" width="2.6" height="10.56" rx="1.29" transform="translate(-7.69 2.58) rotate(-7.97)"/><path class="cls-7" d="M12.93,42.37l2.61-1.13a4.26,4.26,0,0,1,5.61,2.2l1.39,3.2L12.11,51.18,10.72,48A4.26,4.26,0,0,1,12.93,42.37Z"/><polygon class="cls-7" points="0 25.08 10.37 20.45 19.32 43.46 11.98 46.65 0 25.08"/><path class="cls-7" d="M11.9,50.69l1,2.38a1.29,1.29,0,0,0,1.7.66h0A1.29,1.29,0,0,0,15.32,52l.18.43a1.45,1.45,0,0,0,1.91.75h0a1.45,1.45,0,0,0,.75-1.91l.17.4a1.44,1.44,0,0,0,1.91.75h0a1.44,1.44,0,0,0,.75-1.9,1.46,1.46,0,0,0,1.91.75l0,0a1.44,1.44,0,0,0,.74-1.9l-1.39-3.21Z"/></g></g></svg>