<svg xmlns="http://www.w3.org/2000/svg" viewBox="0 0 38.12 38.12"><defs><style>.cls-1{fill:#fff;}.cls-2{fill:#f6a900;}.cls-3{fill:none;stroke:#fff;stroke-miterlimit:10;stroke-width:2px;}</style></defs><g id="Layer_2" data-name="Layer 2"><g id="Layer_1-2" data-name="Layer 1"><path class="cls-1" d="M14.52,26.61h0c-.15,0-.31,0-.46,0a9.75,9.75,0,0,1-1.22-.24,13,13,0,0,1-1.37-.46A11.65,11.65,0,0,1,9.84,25l0,0a0,0,0,0,1,0-.06s0,0,.06,0a1.93,1.93,0,0,1,.24,0,6.5,6.5,0,0,0,.88,0,8.43,8.43,0,0,0,1-.11,7.08,7.08,0,0,0,1.63-.47,7.43,7.43,0,0,0,1.6-.91.12.12,0,0,0,.07-.07l-.22,0A3.58,3.58,0,0,1,13.88,23a3.81,3.81,0,0,1-2.05-2.22v0c0-.1,0-.13.1-.12a4.41,4.41,0,0,0,.81,0,3.19,3.19,0,0,0,.62-.08h0a4,4,0,0,1-.64-.22,3.62,3.62,0,0,1-1.31-.95,3.81,3.81,0,0,1-.94-2,3.29,3.29,0,0,1-.05-.54c0-.12,0-.15.14-.09a3.87,3.87,0,0,0,1.38.41h.1a3.65,3.65,0,0,1-.36-.31,3.53,3.53,0,0,1-.51-.58,3.8,3.8,0,0,1-.6-1.27,5.35,5.35,0,0,1-.11-.68,4.09,4.09,0,0,1,.11-1.26,3.46,3.46,0,0,1,.36-.89c0-.09.09-.09.15,0,.27.31.55.62.84.9a11.88,11.88,0,0,0,1.23,1,10.82,10.82,0,0,0,1.53.91,10.32,10.32,0,0,0,1.19.5,10.43,10.43,0,0,0,1.83.46,6.59,6.59,0,0,0,.88.1l.16,0c.07,0,.08,0,.07-.09a4.26,4.26,0,0,1-.07-.87,3.88,3.88,0,0,1,.33-1.42,3.64,3.64,0,0,1,.59-.94A3.75,3.75,0,0,1,20.75,12a3.8,3.8,0,0,1,1.08-.4,3.42,3.42,0,0,1,.45,0h.13s.06,0,.1,0h.24a.21.21,0,0,0,.11,0h.07l.36,0a3,3,0,0,1,.78.21,3.92,3.92,0,0,1,.95.55c.12.1.24.2.35.31a.15.15,0,0,0,.16.05,7.73,7.73,0,0,0,1.39-.44,7.31,7.31,0,0,0,.79-.4l.05,0s0,0,.08,0,0,0,0,.08a1.66,1.66,0,0,1-.12.31,3.49,3.49,0,0,1-.59.93,3.82,3.82,0,0,1-.72.67l-.12.07h0a2.79,2.79,0,0,1,.38-.07,7.66,7.66,0,0,0,1.48-.45l.1,0a.06.06,0,0,1,.08,0,.06.06,0,0,1,0,.08l-.12.16a7.92,7.92,0,0,1-.64.77,7.14,7.14,0,0,1-1,.9.22.22,0,0,0-.09.21,3.53,3.53,0,0,1,0,.65c0,.13,0,.25,0,.38,0,.37-.08.74-.14,1.11a11.47,11.47,0,0,1-2,4.71,10.69,10.69,0,0,1-.8,1,10.27,10.27,0,0,1-2,1.74c-.27.17-.54.32-.82.47a10.08,10.08,0,0,1-1.44.62,10.79,10.79,0,0,1-1.76.44,6.15,6.15,0,0,1-.74.06H14.61A.07.07,0,0,0,14.52,26.61Z"/><path class="cls-2" d="M22.77,11.53H22.5s0,0,0,0h.26S22.78,11.52,22.77,11.53Z"/><path class="cls-2" d="M22.5,11.51v0s-.07,0-.09,0Z"/><path class="cls-2" d="M22.77,11.53v0h.1S22.8,11.52,22.77,11.53Z"/><path class="cls-2" d="M14.52,26.61s.06,0,.09,0Z"/><path class="cls-2" d="M26.21,13.88l0,0s0,0,0,0S26.19,13.88,26.21,13.88Z"/><circle class="cls-3" cx="19.06" cy="19.06" r="18.06"/><circle class="cls-2" cx="19.06" cy="19.06" r="0.4"/></g></g></svg>